<svg width="54" height="25" viewBox="0 0 54 25" fill="none" xmlns="http://www.w3.org/2000/svg">
<rect x="0.30127" width="53.6985" height="24.386" rx="12.193" fill="#F3F0FF"/>
<rect x="30" y="1" width="22" height="22" rx="11" fill="#6741D9"/>
<path d="M36.996 12C36.996 14.2088 38.7928 16.0056 41.0016 16.0056C43.2104 16.0056 45.0072 14.2088 45.0072 12C45.0072 9.7912 43.2104 7.9944 41.0016 7.9944C38.7928 7.9944 36.996 9.7912 36.996 12ZM40.2 17.6H41.8V20H40.2V17.6ZM40.2 4H41.8V6.4H40.2V4ZM33 11.2H35.4V12.8H33V11.2ZM46.6 11.2H49V12.8H46.6V11.2ZM35.9096 18.2224L34.7784 17.0912L36.4752 15.3944L37.6064 16.5256L35.9096 18.2224ZM44.3936 7.4752L46.0912 5.7776L47.2224 6.9088L45.5248 8.6064L44.3936 7.4752ZM36.4752 8.6072L34.7784 6.9096L35.9104 5.7784L37.6064 7.476L36.4752 8.6072ZM47.2224 17.0912L46.0912 18.2224L44.3936 16.5248L45.5248 15.3936L47.2224 17.0912Z" fill="#F8FAFB"/>
</svg>
