<svg width="54" height="25" viewBox="0 0 54 25" fill="none" xmlns="http://www.w3.org/2000/svg">
<rect x="53.772" y="24.6985" width="53.6985" height="24.386" rx="12.193" transform="rotate(-180 53.772 24.6985)" fill="#6741D9"/>
<path d="M3 12C3 5.92487 7.92487 1 14 1C20.0751 1 25 5.92487 25 12C25 18.0751 20.0751 23 14 23C7.92487 23 3 18.0751 3 12Z" fill="white"/>
<path d="M10.3079 7.38464C10.3079 6.20607 10.4811 5.015 10.9232 4C7.98357 5.27964 6 8.28179 6 11.6921C6 16.2804 9.71964 20 14.3079 20C17.7182 20 20.7204 18.0164 22 15.0768C20.985 15.5189 19.7929 15.6921 18.6154 15.6921C14.0271 15.6921 10.3079 11.9729 10.3079 7.38464Z" fill="#3A2578"/>
</svg>
