<svg width="55" height="26" viewBox="0 0 55 26" fill="none" xmlns="http://www.w3.org/2000/svg">
<rect x="54.0737" y="25.375" width="53.6985" height="24.386" rx="12.193" transform="rotate(-180 54.0737 25.375)" fill="#D1D6D8"/>
<rect x="16" y="2" width="22" height="22" rx="11" fill="white"/>
<path d="M27.0018 16.103C26.2384 16.103 25.5062 15.7997 24.9664 15.2599C24.4265 14.72 24.1233 13.9879 24.1233 13.2244C24.1233 12.461 24.4265 11.7288 24.9664 11.189C25.5062 10.6492 26.2384 10.3459 27.0018 10.3459C27.7653 10.3459 28.4974 10.6492 29.0373 11.189C29.5771 11.7288 29.8804 12.461 29.8804 13.2244C29.8804 13.9879 29.5771 14.72 29.0373 15.2599C28.4974 15.7997 27.7653 16.103 27.0018 16.103ZM33.1126 14.0222C33.1455 13.759 33.1701 13.4958 33.1701 13.2244C33.1701 12.953 33.1455 12.6816 33.1126 12.402L34.8479 11.0614C35.0042 10.938 35.0453 10.716 34.9466 10.535L33.3017 7.68939C33.203 7.50845 32.981 7.43443 32.8 7.50845L30.7522 8.33089C30.3245 8.01014 29.8804 7.73051 29.3622 7.5249L29.0579 5.34543C29.0412 5.24856 28.9908 5.16073 28.9155 5.0975C28.8402 5.03428 28.745 4.99974 28.6467 5H25.3569C25.1513 5 24.9786 5.14804 24.9457 5.34543L24.6414 7.5249C24.1233 7.73051 23.6791 8.01014 23.2515 8.33089L21.2036 7.50845C21.0227 7.43443 20.8006 7.50845 20.7019 7.68939L19.057 10.535C18.9501 10.716 18.9995 10.938 19.1557 11.0614L20.8911 12.402C20.8582 12.6816 20.8335 12.953 20.8335 13.2244C20.8335 13.4958 20.8582 13.759 20.8911 14.0222L19.1557 15.3875C18.9995 15.5108 18.9501 15.7329 19.057 15.9138L20.7019 18.7595C20.8006 18.9404 21.0227 19.0062 21.2036 18.9404L23.2515 18.1097C23.6791 18.4387 24.1233 18.7183 24.6414 18.924L24.9457 21.1034C24.9786 21.3008 25.1513 21.4489 25.3569 21.4489H28.6467C28.8523 21.4489 29.025 21.3008 29.0579 21.1034L29.3622 18.924C29.8804 18.7101 30.3245 18.4387 30.7522 18.1097L32.8 18.9404C32.981 19.0062 33.203 18.9404 33.3017 18.7595L34.9466 15.9138C35.0453 15.7329 35.0042 15.5108 34.8479 15.3875L33.1126 14.0222Z" fill="#979B9D"/>
</svg>
